{"title":"DISNEYS-TREASURE ISLAND[1950]-H.264 BY STIG","uid":5031365,"size":841767998,"categoryP":"video","categoryS":"movies","magnet":"?xt=urn:btih:df0a58fa60199f64561ecf499eecb12c79894d35&amp;dn=DISNEYS-TREASURE+ISLAND%5B1950%5D-H.264+BY+STIG&amp;tr=udp%3A%2F%2Ftracker.openbittorrent.com%3A80&amp;tr=udp%3A%2F%2Fopen.demonii.com%3A1337&amp;tr=udp%3A%2F%2Ftracker.coppersurfer.tk%3A6969&amp;tr=udp%3A%2F%2Fexodus.desync.com%3A6969","seeders":1,"leechers":2,"uploader":"alanwatson","files":-1,"time":1248929980,"description":"In this swashbuckling, high-seas adventure, Walt Disney has vividly brought to life Robert Louis Stevenson's thrilling tale of buccaneers and buried gold - presented for the first time in it's original, uncut, theatrical version! Authentic locales and musket-roaring action set the stage for the stouthearted heroics of young Jim Hawkins (Bobby Driscoll) and the skullduggery of that wily, one-legged pirate, Long John Silver.\n\nFormat : MPEG-4\nFormat profile : Base Media / Version 2\nCodec ID : mp42\nFile size : 799 MiB\nDuration : 1h 31mn\nOverall bit rate : 1 216 Kbps\nEncoded date : UTC 2009-07-29 17:38:20\nTagged date : UTC 2009-07-29 21:39:22\nWriting application : HandBrake 0.9.3 2008112300\n\nVideo\nID : 1\nFormat : AVC\nFormat/Info : Advanced Video Codec\nFormat profile : &lt;a class=&quot;__cf_email__&quot; href=&quot;/cdn-cgi/l/email-protection&quot; data-cfemail=&quot;084569616648443c2638&quot;&gt;[email&amp;#160;protected]&lt;/a&gt;&lt;script cf-hash='f9e31' type=&quot;text/javascript&quot;&gt;\n/* &lt;![CDATA[ */!function(){try{var t=&quot;currentScript&quot;in document?document.currentScript:function(){for(var t=document.getElementsByTagName(&quot;script&quot;),e=t.length;e--;)if(t[e].getAttribute(&quot;cf-hash&quot;))return t[e]}();if(t&amp;&amp;t.previousSibling){var e,r,n,i,c=t.previousSibling,a=c.getAttribute(&quot;data-cfemail&quot;);if(a){for(e=&quot;&quot;,r=parseInt(a.substr(0,2),16),n=2;a.length-n;n+=2)i=parseInt(a.substr(n,2),16)^r,e+=String.fromCharCode(i);e=document.createTextNode(e),c.parentNode.replaceChild(e,c)}}}catch(u){}}();/* ]]&gt; */&lt;/script&gt;\nFormat settings, CABAC : Yes\nFormat settings, ReFrames : 3 frames\nCodec ID : avc1\nCodec ID/Info : Advanced Video Coding\nDuration : 1h 31mn\nBit rate mode : Variable\nBit rate : 1 052 Kbps\nWidth : 720 pixels\nHeight : 576 pixels\nDisplay aspect ratio : 4/3\nFrame rate mode : Variable\nFrame rate : 25.000 fps\nMinimum frame rate : 12.500 fps\nMaximum frame rate : 25.000 fps\nStandard : PAL\nResolution : 24 bits\nColorimetry : 4:2:0\nScan type : Progressive\nBits/(Pixel*Frame) : 0.101\nStream size : 692 MiB (87%)\nWriting library : x264 core 65\n\n\nAudio\nID : 2\nFormat : AAC\nFormat/Info : Advanced Audio Codec\nFormat version : Version 4\nFormat profile : LC\nFormat settings, SBR : No\nCodec ID : 40\nDuration : 1h 31mn\nBit rate mode : Variable\nBit rate : 160 Kbps\nMaximum bit rate : 201 Kbps\nChannel(s) : 2 channels\nChannel positions : L R\nSampling rate : 48.0 KHz\nResolution : 16 bits\nStream size : 105 MiB (13%)\nLanguage : English\nEncoded date : UTC 2009-07-29 17:38:20\nTagged date : UTC 2009-07-29 21:39:17","torrent":{"xt":"urn:btih:df0a58fa60199f64561ecf499eecb12c79894d35","amp;dn":"DISNEYS-TREASURE+ISLAND%5B1950%5D-H.264+BY+STIG","amp;tr":["udp%3A%2F%2Ftracker.openbittorrent.com%3A80","udp%3A%2F%2Fopen.demonii.com%3A1337","udp%3A%2F%2Ftracker.coppersurfer.tk%3A6969","udp%3A%2F%2Fexodus.desync.com%3A6969"],"infoHash":"df0a58fa60199f64561ecf499eecb12c79894d35","infoHashBuffer":{"type":"Buffer","data":[223,10,88,250,96,25,159,100,86,30,207,73,158,236,177,44,121,137,77,53]},"announce":[],"urlList":[]}}